<?xml version="1.0" encoding="utf-8"?>
<!-- Generator: Adobe Illustrator 28.1.0, SVG Export Plug-In . SVG Version: 6.00 Build 0)  -->
<svg version="1.0" id="Layer_1" xmlns="http://www.w3.org/2000/svg" xmlns:xlink="http://www.w3.org/1999/xlink" x="0px" y="0px"
	 viewBox="0 0 171.6 77.6" enable-background="new 0 0 171.6 77.6" xml:space="preserve">
<g>
	<g>
		<path fill="#009F84" d="M77.7,12.8c-2.7,9.3-3.1,19-1,28.5c1,4.9,2.8,9.5,4.8,14.1c2.1,4.6,5.9,11.7,3.3,16.8
			c-0.3,0.6-0.3,1.8-0.3,1.8s2.6-4,3.4-5.5c2.2-4.3,2.8-8.3,1.5-13.1c-1.5-5.5-4.5-10.4-6.3-15.8c-3.7-11.2-4-23.1-0.7-34.4
			c0.1-0.4-1.9,2.2-2.1,2.6C79.3,9.2,78.2,11,77.7,12.8L77.7,12.8z"/>
	</g>
	<g>
		<path fill="#005850" d="M13.6,38.8c0.5,0,0.9-0.4,0.9-0.9S14.2,37,13.6,37s-0.9,0.4-0.9,0.9S13.1,38.8,13.6,38.8z"/>
		<path fill="#005850" d="M11.1,38.8c0.5,0,0.9-0.4,0.9-0.9S11.6,37,11.1,37c-0.6,0-0.9,0.4-0.9,0.9S10.5,38.8,11.1,38.8z"/>
		<path fill="#005850" d="M14.3,46.4c0,1.6,1,1.8,2.2,1.9H17h1.2h0.3h2.2h-1.4h2.2h0.3h1.1c1.5,0,2.6-0.8,2.6-2.3v-5.6L23,40.7
			c0.8,0.2,0.8,0.4,0.8,0.8v4.3c0,1-0.4,1.7-1.3,1.7h-0.8h-0.3h-2.2h1.4h-2.2h-0.3h-1.7c-0.8-0.1-0.9-0.9-0.9-1.4v-4.6
			c0-0.4,0-0.8,0.1-1.3h-0.9c-0.1,0.1-0.1,0.2-0.1,0.3c-0.1,0.2-0.2,0.4-0.2,0.4c0,0-0.1-0.1-0.3-0.2c-0.4-0.3-1.1-0.7-2.1-0.7
			c-2.2,0-3.7,2-3.7,4.1c0,2.2,1.4,4.1,3.3,4.1C13.2,48.2,14,47.2,14.3,46.4z M10,44.2c0-1.8,0.6-3.5,2-3.5c1.8,0,2,1.7,2,3.2
			c0,0.9,0,1.6-0.2,2.2c-0.3,0.9-1.1,1.6-1.9,1.6C11.2,47.6,10,46.8,10,44.2z"/>
		<path fill="#005850" d="M22.2,38.5c0.5,0,0.8-0.4,0.8-0.8c0-0.5-0.3-0.8-0.8-0.8c-0.5,0-0.8,0.4-0.8,0.8
			C21.4,38.1,21.7,38.5,22.2,38.5z"/>
		<path fill="#005850" d="M24,37.6c0,0.5,0.4,0.8,0.8,0.8c0.5,0,0.8-0.4,0.8-0.8c0-0.5-0.3-0.8-0.8-0.8C24.4,36.8,24,37.2,24,37.6z"
			/>
		<path fill="#005850" d="M23.5,36.5c0.4,0,0.8-0.4,0.8-0.8S24,35,23.5,35c-0.5,0-0.8,0.3-0.8,0.7S23,36.5,23.5,36.5z"/>
		<path fill="#005850" d="M28.8,38.2V46c0,1.7,1.1,2.2,2.6,2.2h0.7h0.3h2.2h0.3h2.2h0.3h2.2h0.3h5.1c1.1,0,1.9-0.4,2.6-1l-0.4-0.3
			c-0.5,0.4-1.1,0.6-1.8,0.6c-1.8,0-2.5-1.5-2.5-3.6c0-2.2,0.8-3.3,2.4-3.3c0.9,0,1.4,0.4,1.7,0.9c-0.1,0-0.2,0-0.4,0
			c-0.5,0-0.8,0.3-0.8,0.8c0,0.5,0.4,0.9,1,0.9c0.6,0,1-0.5,1-1.1c0-1.2-1.2-2-2.6-2c-2.2,0-4.1,1.7-4.1,4.1c0,1.5,0.7,2.7,1.7,3.4
			h-2.8h-0.3h-2.2h-0.3h-2.2h-0.3h-2.2h-0.3h-0.6c-0.7-0.1-1.2-0.6-1.2-1.5v-9.2L27.5,37v0.6C28.5,37.6,28.8,37.8,28.8,38.2z"/>
		<circle fill="#005850" cx="44.6" cy="37.5" r="0.9"/>
		<path fill="#005850" d="M50.2,50.9c0-0.4,0.2-0.8,0.5-0.8c0.1,0,0.3,0.1,0.4,0.2c-0.2,0.1-0.2,0.2-0.2,0.4c0,0.2,0.2,0.4,0.5,0.4
			c0.3,0,0.5-0.1,0.5-0.5c0-0.5-0.5-0.9-1.1-0.9c-0.9,0-1.4,0.6-1.4,1.4c0,0.5,0.3,0.9,0.7,1.2h-0.8L49,52.8H52v-0.5h-0.8
			C50.5,52.3,50.2,51.4,50.2,50.9z"/>
		<path fill="#005850" d="M58.4,48.2h0.3h2.1h0.3h0.4c1.5,0,2.6-0.8,2.6-2.3v-9.1l-2.4,0.4c0.8,0.2,0.8,0.4,0.8,0.8v7.8
			c0,1.1-0.4,1.7-1.4,1.7h-0.1h-0.3h-2.1h-0.3H58c-1.2,0-2-1.6-2-2.7v-8l-2.3,0.4c0.7,0.2,0.8,0.3,0.8,0.7v7.9c0,1-0.4,1.7-1.3,1.7
			H52v-9.1l-2.4,0.4c0.8,0.3,0.8,0.4,0.8,0.8v7.8h-1L49,48.2h4.4c1.1,0,2.2-0.3,2.6-1.4C56.6,47.7,57.4,48.2,58.4,48.2L58.4,48.2z"
			/>
		<path fill="#005850" d="M9.9,59.2c0,0.5,0.4,0.9,0.9,0.9c0.5,0,0.9-0.4,0.9-0.9c0-0.5-0.4-0.9-0.9-0.9
			C10.2,58.3,9.9,58.7,9.9,59.2z"/>
		<path fill="#005850" d="M12.4,59.2c0,0.5,0.4,0.9,0.9,0.9s0.9-0.4,0.9-0.9c0-0.5-0.4-0.9-0.9-0.9S12.4,58.7,12.4,59.2z"/>
		<path fill="#005850" d="M18.3,71.2c-0.6,0-0.9,0.4-0.9,0.9c0,0.5,0.4,0.9,0.9,0.9c0.5,0,0.9-0.4,0.9-0.9
			C19.2,71.6,18.8,71.2,18.3,71.2z"/>
		<path fill="#005850" d="M20.9,71.2c-0.5,0-0.9,0.4-0.9,0.9c0,0.5,0.4,0.9,0.9,0.9s0.9-0.4,0.9-0.9C21.8,71.6,21.4,71.2,20.9,71.2z
			"/>
		<path fill="#005850" d="M37.4,58.9c0,0.5,0.4,0.9,0.9,0.9c0.5,0,0.9-0.4,0.9-0.9c0-0.5-0.4-0.9-0.9-0.9
			C37.7,58,37.4,58.4,37.4,58.9z"/>
		<path fill="#005850" d="M42.3,58.9c0,0.5,0.4,0.9,0.9,0.9c0.5,0,0.9-0.4,0.9-0.9c0-0.5-0.4-0.9-0.9-0.9
			C42.7,58,42.3,58.4,42.3,58.9z"/>
		<path fill="#005850" d="M44.9,58.9c0,0.5,0.4,0.9,0.9,0.9c0.5,0,0.9-0.4,0.9-0.9c0-0.5-0.4-0.9-0.9-0.9
			C45.3,58,44.9,58.4,44.9,58.9z"/>
		<path fill="#005850" d="M50.2,59.5v7.8c0,1.1-0.4,1.7-1.4,1.7h-0.1h-0.3h-0.7c-1.2,0-2-1.6-2-2.7v-4.5l-2.4,0.4
			c0.7,0.2,0.8,0.3,0.8,0.7v4.5c0,1-0.4,1.7-1.3,1.7h-1h-0.3h-0.2c-1.2,0-2-1.6-2-2.7v-4.5L37,62.1c0.7,0.2,0.8,0.3,0.8,0.7v4.5
			c0,1-0.4,1.7-1.3,1.7h-0.5h-0.3h-0.4c-0.8,0-1.4-0.7-1.7-1.6c0-0.2,0.1-0.4,0.1-0.6c0-1.6-1.2-3.8-3.3-3.8c-2.6,0-3.1,1.6-3.5,3.3
			c-0.2,0.9-0.5,2-1.1,2.5c-0.2,0.2-0.5,0.2-0.7,0.3h-0.4h-0.3h-0.7c-1.2,0-2-1.6-2-2.7v-4.5l-2.4,0.4c0.7,0.2,0.8,0.3,0.8,0.7v4.5
			c0,1-0.4,1.7-1.3,1.7h-0.5h-0.3h-1.7c-0.8-0.1-0.9-0.9-0.9-1.4v-4.6c0-0.4,0-0.8,0.1-1.3h-0.9c-0.1,0.1-0.1,0.2-0.1,0.3
			c-0.1,0.2-0.2,0.4-0.2,0.4c0,0-0.1-0.1-0.3-0.2c-0.4-0.3-1.1-0.7-2.1-0.7c-2.2,0-3.7,2-3.7,4.1c0,2.2,1.4,4.1,3.3,4.1
			c1.5,0,2.3-1.1,2.6-1.9c0,1.6,1,1.8,2.2,1.9h0.5h1.2h0.3H19c1.1,0,2.2-0.3,2.6-1.4c0.6,0.8,1.3,1.4,2.2,1.4h0.4h0.3H25
			c0.9,0,1.5-0.3,1.9-0.7c0.5,0.7,1.3,1.5,2.9,1.5c1.7,0,2.8-0.9,3.3-2c0.6,0.8,1.3,1.2,2.5,1.2h0.1h0.3h0.8c1.1,0,2.2-0.3,2.6-1.4
			c0.5,0.8,1.3,1.3,2.1,1.4v0h0.1h0.2h1.3c1.1,0,2.2-0.3,2.6-1.4c0.6,0.8,1.3,1.4,2.2,1.4h0.4h0.3h0.4c1.5,0,2.6-0.8,2.6-2.3v-9.1
			l-2.4,0.4C50.2,58.9,50.2,59,50.2,59.5z M13.6,67.4c-0.3,0.9-1.1,1.6-1.9,1.6c-0.7,0-1.9-0.8-1.9-3.4c0-1.8,0.6-3.5,2-3.5
			c1.8,0,2,1.7,2,3.2C13.8,66.2,13.7,66.9,13.6,67.4z M29.8,69.7c-1.1,0-1.9-0.9-2.4-1.5c0,0-0.1-0.1-0.1-0.1
			c0.3-0.6,0.5-1.3,0.7-1.9l0-0.1c0.4-1.4,0.7-2.7,1.9-2.7H30c1.3,0.1,1.9,1.6,1.9,3.3C31.9,68.4,30.9,69.7,29.8,69.7z"/>
		<path fill="#005850" d="M54.1,59.5v10.2h1.6V58.2l-2.3,0.4C54.1,58.9,54.1,59,54.1,59.5z"/>
		<path fill="#005850" d="M62.9,61.7c-3,0-5.2,2-5.2,5.1c0,1.7,1.5,2.7,2.7,2.8h0.1c1.3,0,1.8-0.7,2.2-1.3c-0.3,3.3-2.3,4-3.8,4.4
			l-0.4,0.1c0.6,0.1,1.2,0.1,1.5,0.1c1.9,0,4.3-0.7,4.3-6.8v-4.4H62.9z M62.6,66.4c0,1.4-0.8,2.7-1.9,2.7c-1,0-1.6-1.3-1.6-2.3
			c0-2.7,1.7-4.4,3.2-4.4h0.2V66.4z"/>
	</g>
	<g>
		<g>
			<g>
				<path fill="#005850" d="M104.4,54.3l0.5-1.3h2.6c-1.1-0.7-2.3-1.9-2.3-3.5c0-2.1,1.6-4,4.1-4c1.8,0,3.1,1.1,3.1,2.5
					c0,1.1-0.5,1.4-1.4,1.4c-0.7,0-1.4-0.4-1.4-1.1c0-0.4,0.4-0.8,0.8-1.1c-0.3-0.4-0.8-0.5-1.3-0.5c-1.2,0-1.8,1.1-1.8,2.2
					c0,1.5,1.3,4,3.6,4h2.2v1.3H104.4z"/>
				<path fill="#005850" d="M116.1,38.6c0-0.7-0.4-0.9-2-0.9v-0.9l4.5-0.2v14.4c0,1.5,0.7,2.3,1.8,2.3h1.4v1h-1.6
					c-2.4,0-4.1-0.8-4.1-3.5V38.6z"/>
				<path fill="#005850" d="M121.3,53.2h10.1c1.4,0,2.1-1.1,2.1-2.7v-1.5c-0.7,1.6-2,2.4-3.6,2.4c-1.9,0-4.3-1.7-4.3-4.3
					c0-4.9,3.4-6.7,8.2-6.7h2.1v10.2c0,2.3-1.4,3.6-3.8,3.6h-10.8V53.2z M133.4,41.3h-0.3c-2.5,0-5.1,1.5-5.1,5.7
					c0,1.6,0.8,3.6,2.4,3.6c1.6,0,2.9-2,2.9-4.2V41.3z M133.4,36.4c0,0.8-0.7,1.4-1.4,1.4c-0.8,0-1.4-0.6-1.4-1.4s0.7-1.4,1.4-1.4
					C132.7,35,133.4,35.6,133.4,36.4z"/>
				<path fill="#005850" d="M140.8,59.1c2-0.4,4.6-1.3,5.6-4.9h-3.2c-1.9,0-4.3-1.7-4.3-4.3c0-4.8,3.4-8,8.1-8h2.1v6.8
					c0,1.8-0.1,3.3-0.2,4.5h3.6v1h-3.8c-1.2,4.5-4.1,5.1-6.3,5.1c-0.4,0-1.3-0.1-2.3-0.1L140.8,59.1z M146.7,42.8h-0.3
					c-2.4,0-5.1,2.8-5.1,6.9c0,1.6,0.9,3.5,2.4,3.5h2.9c0-0.3,0.1-0.5,0.1-0.9V42.8z"/>
				<path fill="#005850" d="M152.1,53.2h0.6c1.6,0,2.2-1,2.2-2.7V38.4c0-0.6,0-0.8-1.2-1.2l3.7-0.7v14.2c0,2.3-1.7,3.6-4.1,3.6h-1.2
					V53.2z"/>
				<path fill="#005850" d="M161,38.4c0-0.6,0-0.8-1.2-1.2l3.6-0.7v17.8H161V38.4z"/>
			</g>
			<path fill="#005850" d="M121.3,53.2h10.1c1.4,0,2.1-1.1,2.1-2.7v-1.5c-0.7,1.6-2,2.4-3.6,2.4c-1.9,0-4.3-1.7-4.3-4.3
				c0-4.9,3.4-6.7,8.2-6.7h2.1v10.2c0,2.3-1.4,3.6-3.8,3.6h-10.8V53.2z M133.4,41.3h-0.3c-2.5,0-5.1,1.5-5.1,5.7
				c0,1.6,0.8,3.6,2.4,3.6c1.6,0,2.9-2,2.9-4.2V41.3z M133.4,36.4c0,0.8-0.7,1.4-1.4,1.4c-0.8,0-1.4-0.6-1.4-1.4s0.7-1.4,1.4-1.4
				C132.7,35,133.4,35.6,133.4,36.4z"/>
		</g>
		<g>
			<path fill="#005850" d="M104.7,66.4c0-1.3,0-2.3-0.1-3c0-0.7-0.1-1.2-0.2-1.5c0.2,0,0.4,0,0.6,0s0.5,0,0.8,0h3.9
				c0.2,0,0.5,0,0.8,0c0.3,0,0.6,0,0.7-0.1c0,0.2-0.1,0.4-0.1,0.8c0,0.3-0.1,0.7-0.1,1.1c-0.1-0.1-0.3-0.1-0.5-0.2
				c-0.2-0.1-0.6-0.1-1-0.1c-0.3,0-0.7,0-1.1-0.1c-0.5,0-0.9,0-1.4,0c0,0-0.1,0-0.1,0.1v3.3c0,0.1,0,0.1,0.1,0.1c0.1,0,0.2,0,0.5,0
				c0.2,0,0.5,0,0.7,0s0.5,0,0.7,0c0.2,0,0.4,0,0.6,0c0.5,0,0.8,0,1.1-0.1c0.2,0,0.4-0.1,0.5-0.1c0,0.1,0,0.3-0.1,0.5
				c0,0.2,0,0.3-0.1,0.5c0,0.2,0,0.4,0,0.5c0,0.2,0,0.3,0,0.4c-0.1-0.1-0.3-0.2-0.5-0.2c-0.2,0-0.5-0.1-0.8-0.1c-0.1,0-0.3,0-0.6,0
				c-0.2,0-0.5,0-0.8,0c-0.3,0-0.5,0-0.7,0s-0.4,0-0.5,0c0,0-0.1,0-0.1,0.1v0.8c0,0.7,0,1.2,0,1.6c0,0.4,0,0.7,0,0.9
				c0,0.2,0,0.4,0,0.5c0,0.1,0,0.1,0.1,0.1c0,0,0.2,0.1,0.4,0.1c0.2,0,0.5,0,0.7,0.1c0.2,0,0.5,0,0.9,0c1.3,0,2.2-0.1,2.8-0.4
				c-0.1,0.3-0.2,0.6-0.2,0.9c-0.1,0.4-0.1,0.6-0.2,0.9c0,0-0.1,0-0.3,0c-0.1,0-0.4,0-0.7,0c-0.5,0-1,0-1.5,0c-0.4,0-0.8,0-1.2,0
				c-0.4,0-0.7,0-1,0c-0.3,0-0.6,0-0.8,0c-0.4,0-0.7,0-0.9,0c-0.3,0-0.5,0-0.6,0c0-0.3,0.1-0.8,0.1-1.6c0-0.8,0.1-1.8,0.1-2.9V66.4z
				"/>
			<path fill="#005850" d="M114.5,66.4c0-0.6,0-1.1,0-1.6c0-0.5,0-0.9,0-1.3s0-0.7-0.1-1c0-0.3,0-0.5-0.1-0.6c0.1,0,0.3,0,0.5,0
				c0.2,0,0.4,0,0.6,0c0.3,0,0.6,0,0.9,0c0.3,0,0.5,0,0.6-0.1c0,0.3-0.1,0.9-0.1,1.7c0,0.8-0.1,1.7-0.1,2.8v2.6c0,0.7,0,1.3,0,1.7
				c0,0.4,0,0.7,0,1c0,0.2,0,0.4,0,0.4c0,0.1,0,0.1,0.1,0.1c0,0,0.1,0,0.1,0.1c0.1,0,0.2,0,0.3,0c0.3,0,0.8,0.1,1.5,0.1
				c0.8,0,1.4,0,1.9-0.1c0.5-0.1,0.8-0.2,1.1-0.3c0,0.1-0.1,0.2-0.1,0.4c0,0.2-0.1,0.3-0.1,0.5c0,0.2-0.1,0.3-0.1,0.5
				c0,0.2-0.1,0.3-0.1,0.4c-0.1,0-0.2,0-0.3,0c-0.1,0-0.4,0-0.8,0c-0.6,0-1.1,0-1.5,0c-0.4,0-0.8,0-1.2,0c-0.3,0-0.7,0-0.9,0
				c-0.3,0-0.6,0-0.9,0c-0.3,0-0.6,0-0.8,0c-0.2,0-0.3,0-0.5,0c0-0.3,0.1-0.8,0.1-1.6c0-0.8,0.1-1.8,0.1-2.9V66.4z"/>
			<path fill="#005850" d="M120.8,61.8c0.1,0,0.2,0,0.3,0c0.1,0,0.3,0,0.4,0c0.1,0,0.2,0,0.3,0c0.1,0,0.2,0,0.2,0c0.4,0,0.7,0,1.1,0
				c0.3,0,0.6,0,0.7-0.1c0.1,0.2,0.2,0.6,0.3,1c0.1,0.4,0.3,1,0.6,1.6c0.3,0.8,0.7,1.7,1.1,2.6c0.4,1,0.8,1.9,1.3,2.9
				c0.2-0.4,0.4-0.9,0.6-1.4s0.5-1,0.7-1.5c0.2-0.5,0.4-1,0.7-1.5c0.2-0.5,0.4-1,0.6-1.5c0.2-0.6,0.4-1.1,0.5-1.4
				c0.1-0.3,0.2-0.6,0.2-0.8c0.1,0,0.3,0,0.5,0c0.2,0,0.3,0,0.4,0c0.4,0,0.7,0,0.9,0c0.3,0,0.5,0,0.7-0.1c-0.1,0.1-0.2,0.3-0.3,0.5
				c-0.1,0.2-0.3,0.5-0.4,0.7s-0.3,0.6-0.5,0.9c-0.2,0.3-0.3,0.6-0.4,0.9c-0.2,0.4-0.5,0.9-0.7,1.4c-0.3,0.5-0.6,1.2-0.9,1.9
				c-0.5,1.1-1,2.1-1.3,2.8c-0.4,0.7-0.7,1.4-0.9,1.9c-0.1,0.2-0.2,0.4-0.3,0.6c-0.1,0.1-0.1,0.2-0.2,0.3c0,0.1-0.1,0.1-0.1,0.1
				c0,0-0.1,0-0.1,0c-0.1,0-0.1-0.1-0.2-0.2c-0.1-0.1-0.2-0.4-0.4-0.8c-0.6-1.4-1.2-2.7-1.8-4s-1.2-2.6-1.8-4
				c-0.3-0.8-0.6-1.4-0.9-1.9C121.3,62.6,121,62.2,120.8,61.8z"/>
			<path fill="#005850" d="M134.9,66.4c0-1.3,0-2.3-0.1-3c0-0.7-0.1-1.2-0.2-1.5c0.2,0,0.4,0,0.6,0s0.5,0,0.8,0h3.9
				c0.2,0,0.5,0,0.8,0c0.3,0,0.6,0,0.7-0.1c0,0.2-0.1,0.4-0.1,0.8c0,0.3-0.1,0.7-0.1,1.1c-0.1-0.1-0.3-0.1-0.5-0.2
				c-0.2-0.1-0.6-0.1-1-0.1c-0.3,0-0.7,0-1.1-0.1c-0.5,0-0.9,0-1.4,0c0,0-0.1,0-0.1,0.1v3.3c0,0.1,0,0.1,0.1,0.1c0.1,0,0.2,0,0.5,0
				c0.2,0,0.5,0,0.7,0s0.5,0,0.7,0c0.2,0,0.4,0,0.6,0c0.5,0,0.8,0,1.1-0.1c0.2,0,0.4-0.1,0.5-0.1c0,0.1,0,0.3-0.1,0.5
				c0,0.2,0,0.3-0.1,0.5c0,0.2,0,0.4,0,0.5c0,0.2,0,0.3,0,0.4c-0.1-0.1-0.3-0.2-0.5-0.2c-0.2,0-0.5-0.1-0.8-0.1c-0.1,0-0.3,0-0.6,0
				c-0.2,0-0.5,0-0.8,0c-0.3,0-0.5,0-0.7,0s-0.4,0-0.5,0c0,0-0.1,0-0.1,0.1v0.8c0,0.7,0,1.2,0,1.6c0,0.4,0,0.7,0,0.9
				c0,0.2,0,0.4,0,0.5c0,0.1,0,0.1,0.1,0.1c0,0,0.2,0.1,0.4,0.1c0.2,0,0.5,0,0.7,0.1c0.2,0,0.5,0,0.9,0c1.3,0,2.2-0.1,2.8-0.4
				c-0.1,0.3-0.2,0.6-0.2,0.9c-0.1,0.4-0.1,0.6-0.2,0.9c0,0-0.1,0-0.3,0c-0.1,0-0.4,0-0.7,0c-0.5,0-1,0-1.5,0c-0.4,0-0.8,0-1.2,0
				c-0.4,0-0.7,0-1,0c-0.3,0-0.6,0-0.8,0c-0.4,0-0.7,0-0.9,0c-0.3,0-0.5,0-0.6,0c0-0.3,0.1-0.8,0.1-1.6c0-0.8,0.1-1.8,0.1-2.9V66.4z
				"/>
			<path fill="#005850" d="M144.8,66.4c0-1.3,0-2.3-0.1-3c0-0.7-0.1-1.2-0.1-1.5c0.2,0,0.4,0,0.6,0c0.3,0,0.5,0,0.8,0h3.9
				c0.3,0,0.6,0,0.9,0c0.3,0,0.5,0,0.7-0.1c0,0.1,0,0.3-0.1,0.5c0,0.2,0,0.4,0,0.5c0,0.2,0,0.3,0,0.5c0,0.1,0,0.3,0,0.3
				c-0.1-0.1-0.3-0.1-0.5-0.1c-0.2,0-0.5-0.1-1-0.1c-0.1,0-0.3,0-0.5,0c-0.2,0-0.4,0-0.7,0c-0.3,0-0.5,0-0.8,0c-0.3,0-0.5,0-0.7,0
				c0,0-0.1,0-0.1,0.1c0,0.6,0,1.1,0,1.7c0,0.6,0,1.2,0,1.7c0,0.1,0,0.1,0.1,0.1h2.5c0.5,0,0.9,0,1.1-0.1c0.2,0,0.3-0.1,0.4-0.1
				c0,0.1,0,0.2-0.1,0.3c0,0.2,0,0.3-0.1,0.5c0,0.2,0,0.4,0,0.6c0,0.2,0,0.4,0,0.5c-0.2-0.1-0.7-0.2-1.3-0.3c-0.2,0-0.6,0-1,0
				c-0.4,0-0.9,0-1.5,0c0,0,0,0,0,0.1v0.7c0,0.4,0,0.8,0,1.3c0,0.5,0,0.9,0,1.4c0,0.4,0,0.8,0.1,1.2c0,0.3,0,0.6,0.1,0.7
				c-0.1,0-0.2,0-0.4,0c-0.2,0-0.4,0-0.8,0c-0.1,0-0.2,0-0.4,0c-0.1,0-0.3,0-0.4,0c-0.1,0-0.3,0-0.4,0c-0.1,0-0.2,0-0.2,0
				c0-0.3,0.1-0.8,0.1-1.6c0-0.8,0.1-1.8,0.1-3V66.4z"/>
			<path fill="#005850" d="M163.1,73c-0.2-0.3-0.3-0.7-0.5-1c-0.2-0.4-0.4-0.8-0.6-1.2c-0.2-0.4-0.4-0.8-0.6-1.3
				c-0.4-0.8-0.7-1.6-1.1-2.4c-0.4-0.8-0.7-1.5-1.1-2.2c-0.3-0.7-0.6-1.2-0.8-1.7c-0.2-0.5-0.4-0.7-0.4-0.9
				c-0.1-0.3-0.3-0.5-0.3-0.6c-0.1-0.1-0.1-0.1-0.2-0.1c-0.1,0-0.1,0.1-0.2,0.2c-0.1,0.1-0.2,0.3-0.3,0.6l-3.2,7.2
				c-0.4,0.9-0.8,1.8-1.2,2.4c-0.3,0.7-0.6,1.2-0.8,1.7c0.1,0,0.3,0,0.5,0c0.2,0,0.5,0,0.8,0c0.3,0,0.5,0,0.6,0c0.1,0,0.3,0,0.4,0
				c0-0.2,0.1-0.4,0.2-0.6c0.1-0.2,0.2-0.5,0.3-0.8c0.1-0.3,0.2-0.6,0.3-0.9c0.1-0.3,2.3-6,2.3-6s2.4,5.7,2.5,6
				c0.1,0.3,0.3,0.6,0.4,0.9c0.1,0.3,0.2,0.6,0.4,0.9c0.1,0.3,0.2,0.5,0.3,0.7c0.1,0,0.4,0,0.7,0c0.3,0,0.6,0,1,0c0.1,0,0.3,0,0.5,0
				c0.2,0,0.4,0,0.7,0C163.4,73.5,163.2,73.3,163.1,73z"/>
		</g>
	</g>
	<g>
		<path fill="#5FC8B0" d="M79.5,10.5c-2,6.2-0.4,12.2,2.9,17.7c3.2,5.4,11.6,11.9,8.8,19c-0.1,0.2-0.1,1.1-0.1,1.1s1.3-2,1.4-2.2
			c1.1-1.6,2.1-3.4,2.8-5.2c2.4-6.2-1.8-11-5.4-15.6c-4.6-5.9-8.7-13.4-6.4-21c0.5-1.6-1.1,0.8-1.3,1C81.3,6.8,80.1,8.7,79.5,10.5
			L79.5,10.5z"/>
	</g>
</g>
<g>
</g>
<g>
</g>
<g>
</g>
<g>
</g>
<g>
</g>
<g>
</g>
</svg>
