<?xml version="1.0" encoding="utf-8"?>
<!-- Generator: Adobe Illustrator 28.1.0, SVG Export Plug-In . SVG Version: 6.00 Build 0)  -->
<svg version="1.0" id="Layer_1" xmlns="http://www.w3.org/2000/svg" xmlns:xlink="http://www.w3.org/1999/xlink" x="0px" y="0px"
	 viewBox="0 0 29.8 74.3" enable-background="new 0 0 29.8 74.3" xml:space="preserve">
<g>
	<g>
		<path fill="#FFFFFF" d="M6.9,11.2c-2.7,9.3-3.1,19-1,28.5c1,4.9,2.8,9.5,4.8,14.1c2.1,4.6,5.9,11.7,3.3,16.8
			c-0.3,0.6-0.3,1.8-0.3,1.8s2.6-4,3.4-5.5c2.2-4.3,2.8-8.3,1.5-13.1c-1.5-5.5-4.5-10.4-6.3-15.8c-3.7-11.2-4-23.1-0.7-34.4
			C11.8,3,9.7,5.7,9.5,6C8.5,7.6,7.4,9.3,6.9,11.2L6.9,11.2z"/>
	</g>
	<g>
		<path fill="#FFFFFF" d="M8.7,8.8c-2,6.2-0.4,12.2,2.9,17.7c3.2,5.4,11.6,11.9,8.8,19c-0.1,0.2-0.1,1.1-0.1,1.1s1.3-2,1.4-2.2
			c1.1-1.6,2.1-3.4,2.8-5.2c2.4-6.2-1.8-11-5.4-15.6c-4.6-5.9-8.7-13.4-6.4-21c0.5-1.6-1.1,0.8-1.3,1C10.4,5.2,9.3,7,8.7,8.8
			L8.7,8.8z"/>
	</g>
</g>
<g>
</g>
<g>
</g>
<g>
</g>
<g>
</g>
<g>
</g>
<g>
</g>
</svg>
