<?xml version="1.0" encoding="utf-8"?>
<!-- Generator: Adobe Illustrator 28.1.0, SVG Export Plug-In . SVG Version: 6.00 Build 0)  -->
<svg version="1.0" id="Layer_1" xmlns="http://www.w3.org/2000/svg" xmlns:xlink="http://www.w3.org/1999/xlink" x="0px" y="0px"
	 viewBox="0 0 59.1 58.4" enable-background="new 0 0 59.1 58.4" xml:space="preserve">
<g id="_x38_4_x2C__Award_x2C__Badge_x2C__Quality">
	<g>
		<g>
			<path fill="#FFFFFF" d="M49.8,53.9c0.5,0,0.9,0.4,0.9,0.9c0,0.5-0.4,0.9-0.9,0.9c-0.5,0-0.9-0.4-0.9-0.9
				C48.9,54.3,49.3,53.9,49.8,53.9z"/>
			<path fill="#FFFFFF" d="M54.2,37.7c0.5,0,0.9,0.4,0.9,0.9c0,0.5-0.4,0.9-0.9,0.9s-0.9-0.4-0.9-0.9C53.3,38.1,53.7,37.7,54.2,37.7
				z"/>
			<path fill="#FFFFFF" d="M46,3.3c0.5,0,0.9,0.4,0.9,0.9c0,0.5-0.4,0.9-0.9,0.9c-0.5,0-0.9-0.4-0.9-0.9C45.1,3.7,45.5,3.3,46,3.3z"
				/>
			<path fill="#FFFFFF" d="M13.8,2.1c0.5,0,0.9,0.4,0.9,0.9c0,0.5-0.4,0.9-0.9,0.9c-0.5,0-0.9-0.4-0.9-0.9
				C12.8,2.5,13.2,2.1,13.8,2.1z"/>
			<path fill="#FFFFFF" d="M4.8,17.7c0.5,0,0.9,0.4,0.9,0.9c0,0.5-0.4,0.9-0.9,0.9S3.9,19,3.9,18.6C3.9,18.1,4.3,17.7,4.8,17.7z"/>
			<path fill="#FFFFFF" d="M7.4,32.7c0.5,0,0.9,0.4,0.9,0.9c0,0.5-0.4,0.9-0.9,0.9c-0.5,0-0.9-0.4-0.9-0.9
				C6.5,33.1,6.9,32.7,7.4,32.7z"/>
			<path fill="#FFFFFF" d="M18.2,54.6c0.5,0,0.9,0.4,0.9,0.9c0,0.5-0.4,0.9-0.9,0.9c-0.5,0-0.9-0.4-0.9-0.9
				C17.3,55,17.7,54.6,18.2,54.6z"/>
			<path fill="#FFFFFF" d="M49.7,18l-1.9-1.6c-0.7-0.5-1.1-1.3-1.2-2.1L46,11.7c-0.4-2.3-2.4-4-4.9-4h-2.5c-0.9,0-1.7-0.3-2.3-0.8
				l-1.9-1.6c-1.8-1.5-4.6-1.5-6.4,0l-2,1.6c-0.7,0.5-1.5,0.8-2.3,0.8h-2.5c-2.4,0-4.5,1.7-4.9,4l-0.4,2.5c-0.1,0.8-0.6,1.6-1.2,2.1
				l-1.9,1.6c-1.8,1.5-2.3,4.1-1.1,6.2l1.3,2.2c0.4,0.7,0.6,1.6,0.4,2.4l-0.4,2.5c-0.4,2.3,0.9,4.6,3.1,5.4l2.4,0.9
				c0.7,0.2,1.2,0.7,1.7,1.2l-6.4,10.8c-0.1,0.2-0.1,0.5,0,0.7c0.1,0.2,0.4,0.3,0.6,0.3l7.5-1.4l3,6.9c0.2,0.5,0.9,0.5,1.1,0
				l5.2-9.7l5.2,9.7c0.1,0.2,0.3,0.3,0.6,0.3c0.2,0,0.5-0.1,0.6-0.4l3-6.9l7.5,1.4c0.2,0,0.5-0.1,0.6-0.3c0.1-0.2,0.2-0.5,0-0.7
				l-6.5-10.7c0.4-0.6,1-1,1.6-1.2l2.4-0.9c2.2-0.8,3.5-3.1,3.1-5.4l-0.4-2.5c-0.1-0.8,0-1.7,0.4-2.4l1.3-2.2
				C51.9,22.1,51.5,19.5,49.7,18z M40.3,47.8c-0.3-0.1-0.6,0.1-0.7,0.4l-2.7,6.1l-5.2-9.6c-0.2-0.4-0.9-0.4-1.1,0l-5.2,9.6l-2.7-6.1
				c-0.1-0.3-0.4-0.4-0.7-0.4L15.4,49l5.4-9.1l0.8,1.3c1.2,2.1,3.7,3,6,2.1l2.4-0.9c0.8-0.3,1.7-0.3,2.5,0l2.4,0.9
				c2.2,0.8,4.8-0.1,6-2.1l0.8-1.3L47,49L40.3,47.8z M49.7,23.5l-1.3,2.2c-0.6,1-0.8,2.2-0.6,3.3l0.4,2.5c0.3,1.7-0.7,3.4-2.3,4
				l-2.4,0.9c-1.1,0.4-1.9,1.1-2.5,2.1c-1.5,2.6-1.3,2.2-1.3,2.2c-0.9,1.5-2.7,2.2-4.5,1.6l-2.4-0.9c-1.1-0.4-2.3-0.4-3.3,0L27,42.3
				c-1.7,0.6-3.5-0.1-4.5-1.6l-1.3-2.2c-0.6-1-1.5-1.8-2.6-2.1l-2.4-0.9c-1.7-0.6-2.6-2.3-2.3-4l0.4-2.5c0.2-1.1,0-2.3-0.6-3.3
				l-1.3-2.2c-0.9-1.5-0.5-3.5,0.8-4.6l1.9-1.6c0.9-0.7,1.5-1.8,1.7-2.9l0.4-2.5c0.3-1.7,1.8-3,3.6-3h2.5c1.1,0,2.3-0.4,3.1-1.1
				l1.9-1.6c1.4-1.1,3.3-1.1,4.8,0l1.9,1.6c0.9,0.7,2,1.1,3.1,1.1h2.9c1.8,0,3.3,1.3,3.6,3l0.4,2.5c0.2,1.1,0.8,2.2,1.7,2.9l1.9,1.6
				C50.2,20.1,50.5,22,49.7,23.5z"/>
			<path fill="#FFFFFF" d="M31.2,11.6c-7,0-12.6,5.6-12.6,12.5s5.7,12.5,12.6,12.5c7,0,12.6-5.6,12.6-12.5S38.1,11.6,31.2,11.6z
				 M31.2,35.3c-6.3,0-11.4-5-11.4-11.3c0-6.3,5.1-11.3,11.4-11.3c6.4,0,11.4,5,11.4,11.3C42.6,30.3,37.4,35.3,31.2,35.3z"/>
			<path fill="#FFFFFF" d="M37.4,21.4h-4.3l-1.3-4.1c-0.1-0.3-0.3-0.4-0.6-0.4c-0.3,0-0.5,0.2-0.6,0.4l-1.3,4.1h-4.4
				c-0.3,0-0.5,0.2-0.6,0.4c-0.1,0.2,0,0.5,0.2,0.7L28,25l-1.3,4.1c-0.1,0.3,0,0.5,0.2,0.7c0.1,0.1,0.2,0.1,0.4,0.1
				c0.2,0,0.3,0,0.4-0.1l3.5-2.5l3.5,2.5c0.2,0.2,0.5,0.2,0.7,0c0.2-0.2,0.3-0.4,0.2-0.7L34.4,25l3.5-2.5c0.2-0.2,0.3-0.4,0.2-0.7
				C37.9,21.6,37.6,21.4,37.4,21.4z M33.2,24.3C33,24.5,32.9,24.7,33,25l0.9,2.7L31.6,26c-0.1-0.1-0.2-0.1-0.4-0.1
				c-0.2,0-0.3,0-0.4,0.1l-2.3,1.7l0.9-2.7c0.1-0.3,0-0.5-0.2-0.7l-2.3-1.6h2.8c0.3,0,0.5-0.2,0.6-0.4l0.9-2.7l0.9,2.7
				c0.1,0.3,0.3,0.4,0.6,0.4h2.8L33.2,24.3z"/>
			<path fill="#FFFFFF" d="M53.2,5.1c-2.1,0-3.8,1.7-3.8,3.8c0,2.1,1.7,3.8,3.8,3.8S57,11,57,8.9C57,6.8,55.3,5.1,53.2,5.1z
				 M53.2,11.4c-1.4,0-2.5-1.1-2.5-2.5c0-1.4,1.1-2.5,2.5-2.5c1.4,0,2.5,1.1,2.5,2.5C55.7,10.3,54.6,11.4,53.2,11.4z"/>
			<path fill="#FFFFFF" d="M6.5,40.8c-2.4,0-4.5,2-4.5,4.4c0,2.4,2,4.4,4.5,4.4c2.4,0,4.5-2,4.5-4.4C10.9,42.8,8.9,40.8,6.5,40.8z
				 M6.5,48.3c-1.7,0-3.1-1.4-3.1-3.1c0-1.7,1.4-3.1,3.1-3.1c1.7,0,3.1,1.4,3.1,3.1C9.6,46.9,8.2,48.3,6.5,48.3z"/>
		</g>
	</g>
</g>
<g>
</g>
<g>
</g>
<g>
</g>
<g>
</g>
<g>
</g>
<g>
</g>
</svg>
