<?xml version="1.0" encoding="utf-8"?>
<!-- Generator: Adobe Illustrator 28.1.0, SVG Export Plug-In . SVG Version: 6.00 Build 0)  -->
<svg version="1.0" id="Layer_1" xmlns="http://www.w3.org/2000/svg" xmlns:xlink="http://www.w3.org/1999/xlink" x="0px" y="0px"
	 viewBox="0 0 520.3 518.4" enable-background="new 0 0 520.3 518.4" xml:space="preserve">
<g>
	<g>
		<g>
			<g>
				<g>
					<path fill="#E1DDCC" d="M258.7,469.7c-3.7,0-7.3-1.4-10.1-4.2l-58.6-58.6c-15.3-15.3-15.3-40.2,0-55.4
						c15.3-15.3,40.2-15.3,55.5,0l14,14l12.6-14c14.8-14.8,40.6-14.8,55.4,0c15.3,15.3,15.3,40.2,0,55.4l-58.6,58.6
						C266,468.3,262.3,469.7,258.7,469.7z M217.7,352c-7.3,0-14.1,2.8-19.2,7.9c-10.6,10.6-10.6,27.8,0,38.4l58.6,58.6
						c0.9,0.9,2.3,0.8,3.1,0l58.6-58.6c10.6-10.6,10.6-27.8,0-38.4c-10.3-10.2-28.1-10.2-38.4,0l-14,14c-4.2,4.2-11.5,4.2-15.7,0
						l-14-14C231.7,354.8,224.9,352,217.7,352z"/>
				</g>
			</g>
		</g>
		<g>
			<g>
				<g>
					<path fill="#E1DDCC" d="M460.1,499.1H57.2c-7.4,0-13.5-6-13.5-13.5V316.6c0-3.3,2.7-6,6-6h417.8c3.3,0,6,2.7,6,6v169.1
						C473.6,493.1,467.6,499.1,460.1,499.1z M55.8,322.6v163.1c0,0.8,0.6,1.4,1.4,1.4h402.9c0.8,0,1.4-0.6,1.4-1.4V322.6H55.8z"/>
				</g>
			</g>
		</g>
		<g>
			<g>
				<g>
					<path fill="#E1DDCC" d="M467.6,322.6H49.8c-2.1,0-4-1.1-5.1-2.9c-1.1-1.8-1.2-4-0.3-5.9l56.1-112.1c2.7-5.5,8.2-8.9,14.4-8.9
						h102c3.3,0,6,2.7,6,6c0,3.3-2.7,6-6,6h-102c-1.5,0-2.9,0.8-3.6,2.2L59.6,310.5h398.3l-51.7-103.4c-0.7-1.4-2.1-2.3-3.6-2.3
						h-17.7c-3.3,0-6-2.7-6-6c0-3.3,2.7-6,6-6h17.7c6.1,0,11.6,3.4,14.4,8.9L473,313.9c0.9,1.9,0.8,4.1-0.3,5.9
						C471.6,321.5,469.7,322.6,467.6,322.6z"/>
				</g>
			</g>
		</g>
		<g>
			<g>
				<g>
					<path fill="#E1DDCC" d="M329.3,263.8H188.1c-3.3,0-6-2.7-6-6c0-3.3,2.7-6,6-6h141.2c3.3,0,6,2.7,6,6
						C335.3,261.1,332.6,263.8,329.3,263.8z"/>
				</g>
			</g>
		</g>
		<g>
			<g>
				<g>
					<path fill="#E1DDCC" d="M212.9,263.8c-2.1,0-4.1-1.1-5.2-3c-5.2-8.9-7.9-19.1-7.9-29.5c0-13.2,4.3-25.7,12.4-36.1
						c3.7-4.9,8.4-9.3,13.8-13c15.3-10.3,35.4-12.7,52.5-6.5c5.7,2,11.2,4.9,16,8.7c2.6,2,3.1,5.8,1.1,8.5c-2,2.7-5.8,3.2-8.5,1.1
						c-3.8-3-8.1-5.3-12.7-6.9c-13.6-4.9-29.5-3-41.7,5.2c-4.3,2.9-8,6.3-11,10.3c-6.5,8.3-9.9,18.2-9.9,28.7
						c0,8.3,2.2,16.4,6.3,23.4c1.7,2.9,0.7,6.6-2.2,8.3C214.9,263.5,213.9,263.8,212.9,263.8z"/>
				</g>
			</g>
		</g>
		<g>
			<g>
				<g>
					<path fill="#E1DDCC" d="M304.5,263.8c-1,0-2.1-0.3-3-0.8c-2.9-1.7-3.9-5.4-2.2-8.3c4.1-7.1,6.3-15.2,6.3-23.4
						c-0.4-3.3,2-6.7,5.3-7.1c3.4-0.4,6.3,1.6,6.7,4.9c0.1,0.8,0.1,1.4,0.1,2.2c0,10.4-2.7,20.6-7.9,29.5
						C308.6,262.7,306.6,263.8,304.5,263.8z"/>
				</g>
			</g>
		</g>
	</g>
	<g>
		<g>
			<g>
				<path fill="#E1DDCC" d="M229.3,193.3c-3.3,0-6-2.7-6-6v-48.7c0-9.4,2.1-18.2,6.1-25.5c11.8-21.4,27.6-39.7,46.9-54.6l19.8-15.2
					c20.1-15.5,45.1-24,70.5-24h98.1c3.3,0,6,2.7,6,6s-2.7,6-6,6h-98.1c-22.7,0-45.1,7.6-63.2,21.5L283.6,68
					c-17.7,13.7-32.8,31.2-43.7,50.9c-3,5.5-4.6,12.3-4.6,19.7v48.7C235.3,190.5,232.6,193.3,229.3,193.3z"/>
			</g>
		</g>
	</g>
	<g>
		<g>
			<g>
				<path fill="#E1DDCC" d="M302.5,237.6c-9.5,0-18.6-4.6-24.1-12.8c-4.4-6.6-5.9-14.4-4.2-22.1c1.7-7.7,6.2-14.2,12.9-18.4
					l62.5-39.1c5.5-3.5,8.8-9.4,8.8-15.9v-6.4c0-5.6-4.2-10.5-9.8-11.3l-9-1.3c-9.7-1.4-19.6,0.7-27.9,5.9l-24.6,15.4
					c-3.1,1.9-4.9,5.2-4.9,8.8v41.1c0,3.3-2.7,6-6,6c-3.3,0-6-2.7-6-6v-41.1c0-7.8,3.9-14.9,10.5-19l24.6-15.4
					c10.7-6.7,23.5-9.4,36-7.6l9,1.3c11.5,1.6,20.1,11.6,20.1,23.2v6.4c0,10.7-5.4,20.5-14.5,26.2L294,194.2
					c-4.2,2.7-6.9,6.5-7.9,10.9c-1,4.5-0.1,9.1,2.5,12.9c4.5,6.7,13.1,9.3,20.5,6.2l41.4-17.4c33.9-14.3,64.9-36.1,89.8-63.2
					l25.9-28.2c2.3-2.5,6.1-2.6,8.5-0.4c2.5,2.3,2.6,6.1,0.4,8.5l-25.9,28.2c-26,28.4-58.5,51.3-94,66.2l-41.2,17.3
					C310.2,236.8,306.4,237.6,302.5,237.6z"/>
			</g>
		</g>
	</g>
</g>
<g>
</g>
<g>
</g>
<g>
</g>
<g>
</g>
<g>
</g>
<g>
</g>
</svg>
