<?xml version="1.0" encoding="utf-8"?>
<!-- Generator: Adobe Illustrator 28.1.0, SVG Export Plug-In . SVG Version: 6.00 Build 0)  -->
<svg version="1.0" id="Layer_1" xmlns="http://www.w3.org/2000/svg" xmlns:xlink="http://www.w3.org/1999/xlink" x="0px" y="0px"
	 viewBox="0 0 520.3 518.4" enable-background="new 0 0 520.3 518.4" xml:space="preserve">
<g>
	<g>
		<g>
			<g>
				<g>
					<path fill="#EFEFF0" d="M460.1,331c-2.9,0-5.2-2.3-5.2-5.2v-97.2c0-10.3,4-20,11.3-27.3c5.3-5.3,8.2-12.4,8.2-19.9V80.6
						c0-3.5-2.8-6.3-6.3-6.3c-3.5,0-6.3,2.8-6.3,6.3v31.1c0,2.9-2.3,5.2-5.2,5.2c-2.9,0-5.2-2.3-5.2-5.2V69.9c0-3.5-2.8-6.3-6.3-6.3
						h-1.8c-3.5,0-6.3,2.8-6.3,6.3v45.3c0,2.9-2.3,5.2-5.2,5.2c-2.9,0-5.2-2.3-5.2-5.2V52.1c0-3.5-2.8-6.3-6.3-6.3h-1.8
						c-3.5,0-6.3,2.8-6.3,6.3v66.7c0,2.9-2.3,5.2-5.2,5.2c-2.9,0-5.2-2.3-5.2-5.2V66.3c0-3.5-2.8-6.3-6.3-6.3h-1.8
						c-3.5,0-6.3,2.8-6.3,6.3v58c0,3-1.8,5.6-4.5,6.8c-2.7,1.2-5.9,0.5-8-1.6l-5.4-5.4c-2.7-2.7-7.5-2.7-10.3,0
						c-1.9,1.9-2.6,4.7-1.8,7.3l18.8,59.2c2.1,6.6,6.2,12.4,11.8,16.6c4,3,6.4,7.8,6.4,12.9v102c0,2.9-2.3,5.2-5.2,5.2
						c-2.9,0-5.2-2.3-5.2-5.2v-102c0-1.8-0.8-3.5-2.3-4.5c-7.3-5.5-12.7-13-15.5-21.8l-18.8-59.2c-2-6.3-0.3-13.2,4.4-17.9
						c6.7-6.7,18.4-6.7,25.1,0V66.3c0-9.3,7.5-16.8,16.8-16.8h1.8c2.3,0,4.4,0.4,6.4,1.3c0.7-8.6,7.9-15.5,16.7-15.5h1.8
						c9.3,0,16.8,7.5,16.8,16.8v2.2c2-0.8,4.1-1.2,6.3-1.2h1.8c7.7,0,14.1,5.2,16.1,12.2c2.1-1,4.5-1.5,7-1.5
						c9.3,0,16.8,7.5,16.8,16.8v100.8c0,10.3-4,20-11.3,27.3c-5.3,5.3-8.2,12.4-8.2,19.9v97.2C465.3,328.6,463,331,460.1,331z"/>
				</g>
			</g>
		</g>
		<g>
			<g>
				<g>
					<path fill="#EFEFF0" d="M439.6,483H338.8c-10.3,0-20-4-27.3-11.3c-5.3-5.3-12.4-8.2-19.9-8.2h-97.2c-2.9,0-5.2-2.3-5.2-5.2
						c0-2.9,2.3-5.2,5.2-5.2h97.2c10.3,0,20,4,27.3,11.3c5.3,5.3,12.4,8.2,19.9,8.2h100.8c3.5,0,6.3-2.8,6.3-6.3
						c0-3.5-2.8-6.3-6.3-6.3h-31.1c-2.9,0-5.2-2.3-5.2-5.2c0-2.9,2.3-5.2,5.2-5.2h41.8c3.5,0,6.3-2.8,6.3-6.3v-1.8
						c0-3.5-2.8-6.3-6.3-6.3H405c-2.9,0-5.2-2.3-5.2-5.2c0-2.9,2.3-5.2,5.2-5.2h63.1c3.5,0,6.3-2.8,6.3-6.3v-1.8
						c0-3.5-2.8-6.3-6.3-6.3h-66.7c-2.9,0-5.2-2.3-5.2-5.2c0-2.9,2.3-5.2,5.2-5.2h52.4c3.5,0,6.3-2.8,6.3-6.3v-1.8
						c0-3.5-2.8-6.3-6.3-6.3h-58c-3,0-5.6-1.8-6.8-4.5c-1.1-2.8-0.5-5.9,1.6-8l5.4-5.4c2.8-2.8,2.8-7.4,0-10.3
						c-1.9-1.9-4.7-2.6-7.3-1.8l-59.2,18.8c-6.6,2.1-12.4,6.2-16.6,11.8c-3,4-7.8,6.4-12.9,6.4H198c-2.9,0-5.2-2.3-5.2-5.2
						s2.3-5.2,5.2-5.2h102c1.8,0,3.5-0.8,4.5-2.3c5.5-7.3,13-12.7,21.8-15.5l59.2-18.8c6.3-2,13.2-0.4,17.9,4.4
						c6.9,6.9,6.9,18.2,0,25.1h50.5c9.3,0,16.8,7.5,16.8,16.8v1.8c0,2.3-0.4,4.4-1.3,6.4c8.6,0.7,15.5,7.9,15.5,16.7v1.8
						c0,9.3-7.5,16.8-16.8,16.8h-2.2c0.8,2,1.2,4.1,1.2,6.3v1.8c0,7.7-5.2,14.1-12.2,16.1c1,2.1,1.5,4.5,1.5,7
						C456.4,475.5,448.9,483,439.6,483z"/>
				</g>
			</g>
		</g>
	</g>
	<g>
		<g>
			<g>
				<g>
					<path fill="#EFEFF0" d="M102,483h-1.8c-9.3,0-16.8-7.5-16.8-16.8V464c-2,0.8-4.1,1.2-6.3,1.2h-1.8c-7.7,0-14.1-5.2-16.1-12.2
						c-2.1,1-4.5,1.5-7,1.5c-9.3,0-16.8-7.5-16.8-16.8V337c0-10.2,4.1-20.1,11.3-27.3c5.3-5.3,8.2-12.4,8.2-19.9v-97.2
						c0-2.9,2.3-5.2,5.2-5.2c2.9,0,5.2,2.3,5.2,5.2v97.2c0,10.3-4,20-11.3,27.3c-5.2,5.2-8.2,12.5-8.2,19.9v100.8
						c0,3.5,2.8,6.3,6.3,6.3c3.5,0,6.3-2.8,6.3-6.3v-31.1c0-2.9,2.3-5.2,5.2-5.2c2.9,0,5.2,2.3,5.2,5.2v41.8c0,3.5,2.8,6.3,6.3,6.3
						h1.8c3.5,0,6.3-2.8,6.3-6.3v-45.3c0-2.9,2.3-5.2,5.2-5.2s5.2,2.3,5.2,5.2v63.1c0,3.5,2.8,6.3,6.3,6.3h1.8
						c3.5,0,6.3-2.8,6.3-6.3v-66.7c0-2.9,2.3-5.2,5.2-5.2c2.9,0,5.2,2.3,5.2,5.2V452c0,3.5,2.8,6.3,6.3,6.3h1.8
						c3.5,0,6.3-2.8,6.3-6.3v-58c0-3,1.8-5.6,4.5-6.8c2.7-1.1,5.9-0.5,8,1.6l5.4,5.4c2.7,2.7,7.5,2.7,10.3,0
						c1.9-1.9,2.6-4.7,1.8-7.3l-18.8-59.2c-2.1-6.6-6.2-12.4-11.8-16.6c-4-3-6.4-7.8-6.4-12.9v-102c0-2.9,2.3-5.2,5.2-5.2
						c2.9,0,5.2,2.3,5.2,5.2v102c0,1.8,0.8,3.5,2.3,4.5c7.3,5.5,12.7,13,15.5,21.8l18.8,59.2c2,6.3,0.3,13.2-4.4,17.9
						c-6.7,6.7-18.4,6.7-25.1,0V452c0,9.3-7.5,16.8-16.8,16.8h-1.8c-2.3,0-4.4-0.4-6.4-1.3C118.1,476.2,110.8,483,102,483z"/>
				</g>
			</g>
		</g>
		<g>
			<g>
				<g>
					<path fill="#EFEFF0" d="M129.5,173.8c-4.6,0-9.1-1.8-12.5-5.2c-3.3-3.3-5.2-7.8-5.2-12.5c0-4.7,1.8-9.2,5.2-12.5H66.5
						c-9.3,0-16.8-7.5-16.8-16.8V125c0-2.3,0.4-4.4,1.3-6.4c-8.6-0.7-15.5-7.9-15.5-16.7v-1.8c0-9.3,7.5-16.8,16.8-16.8h2.2
						c-0.8-2-1.2-4.1-1.2-6.3v-1.8c0-7.7,5.2-14.1,12.2-16.1c-1-2.1-1.5-4.5-1.5-7c0-9.3,7.5-16.8,16.8-16.8h100.8
						c10.3,0,20,4,27.3,11.3c5.3,5.3,12.4,8.2,19.9,8.2h97.2c2.9,0,5.2,2.3,5.2,5.2s-2.3,5.2-5.2,5.2h-97.2c-10.3,0-20-4-27.3-11.3
						c-5.3-5.3-12.4-8.2-19.9-8.2H80.7c-3.5,0-6.3,2.8-6.3,6.3c0,3.5,2.8,6.3,6.3,6.3h31.1c2.9,0,5.2,2.3,5.2,5.2
						c0,2.9-2.3,5.2-5.2,5.2H70c-3.5,0-6.3,2.8-6.3,6.3V77c0,3.5,2.8,6.3,6.3,6.3h45.3c2.9,0,5.2,2.3,5.2,5.2c0,2.9-2.3,5.2-5.2,5.2
						H52.3c-3.5,0-6.3,2.8-6.3,6.3v1.8c0,3.5,2.8,6.3,6.3,6.3h66.7c2.9,0,5.2,2.3,5.2,5.2c0,2.9-2.3,5.2-5.2,5.2H66.5
						c-3.5,0-6.3,2.8-6.3,6.3v1.8c0,3.5,2.8,6.3,6.3,6.3h58c3,0,5.6,1.8,6.8,4.5c1.1,2.8,0.5,5.9-1.6,8l-5.4,5.4
						c-1.4,1.4-2.1,3.2-2.1,5.1s0.8,3.8,2.1,5.1c1.9,1.9,4.8,2.6,7.3,1.8l59.2-18.8c6.6-2.1,12.4-6.2,16.6-11.8
						c3-4,7.8-6.4,12.9-6.4h102c2.9,0,5.2,2.3,5.2,5.2s-2.3,5.2-5.2,5.2h-102c-1.8,0-3.5,0.8-4.5,2.3c-5.5,7.3-13,12.7-21.8,15.5
						L134.9,173C133.1,173.6,131.3,173.8,129.5,173.8z"/>
				</g>
			</g>
		</g>
	</g>
</g>
<g>
</g>
<g>
</g>
<g>
</g>
<g>
</g>
<g>
</g>
<g>
</g>
</svg>
