<?xml version="1.0" encoding="utf-8"?>
<!-- Generator: Adobe Illustrator 28.1.0, SVG Export Plug-In . SVG Version: 6.00 Build 0)  -->
<svg version="1.0" id="Layer_1" xmlns="http://www.w3.org/2000/svg" xmlns:xlink="http://www.w3.org/1999/xlink" x="0px" y="0px"
	 viewBox="0 0 55.7 58.4" enable-background="new 0 0 55.7 58.4" xml:space="preserve">
<g id="_x37_5_x2C__Ideas_x2C__Bulb_x2C__Light_00000046307159067581342110000011494454898838708127_">
	<g>
		<g>
			<path fill="#009F84" d="M12.9,5.8C5.2,13.4,5,25.4,12,33.2c2,2.2,3.1,5.1,3.1,8.2c0,2.3,1.9,4.2,4.2,4.2h0.8v1.9h-1.3
				c-0.3,0-0.6,0.3-0.6,0.6c0,0.3,0.3,0.6,0.6,0.6h1.3v1.9h-1.3c-0.3,0-0.6,0.3-0.6,0.6s0.3,0.6,0.6,0.6h1.3
				c0.3,3.7,3.4,6.6,7.3,6.6c3.8,0,6.9-2.9,7.3-6.6h1.3c0.3,0,0.6-0.3,0.6-0.6s-0.3-0.6-0.6-0.6h-1.3v-1.9h1.3
				c0.3,0,0.6-0.3,0.6-0.6c0-0.3-0.3-0.6-0.6-0.6h-1.3v-1.9H35c2.3,0,4.2-1.9,4.2-4.2c0-3,1.1-5.9,3.1-8.2
				c6.9-7.8,6.8-19.7-0.8-27.3C33.8-1.8,21.1-2.1,12.9,5.8z M27.5,57.2c-3.1,0-5.7-2.3-6-5.3h11.9C33.2,54.8,30.7,57.2,27.5,57.2z
				 M33.5,50.6H21.5v-1.9h12v1.9H33.5z M33.5,47.5H21.5v-1.9h12v1.9H33.5z M41.4,32.4c-2.2,2.5-3.4,5.7-3.4,9c0,1.6-1.3,2.9-2.9,2.9
				c-0.9,0-6.1,0-7.2,0V28.7c0.8,0.8,1.9,1.3,3.1,1.3c2.4,0,4.5-2,4.5-4.4c0-2.4-2-4.4-4.5-4.4c-1.6,0-3,0.9-3.8,2.1
				c-0.8-1.3-2.2-2.1-3.8-2.1c-2.4,0-4.5,2-4.5,4.4c0,2.4,2,4.4,4.5,4.4c1.2,0,2.3-0.5,3.1-1.3v15.7c-0.9,0-6.3,0-7.2,0
				c-1.6,0-2.9-1.3-2.9-2.9c0-3.3-1.2-6.5-3.4-9c-6.5-7.2-6.6-18.4,0.9-25.7c3.6-3.5,8.3-5.5,13.4-5.5C37.5,1.3,46,9.8,46,20.1
				C46.1,24.6,44.5,29,41.4,32.4z M27.8,25.6c0-1.7,1.4-3.1,3.1-3.1c1.7,0,3.1,1.4,3.1,3.1c0,1.7-1.4,3.1-3.1,3.1
				C29.2,28.7,27.8,27.3,27.8,25.6z M26.6,25.6c0,1.7-1.4,3.1-3.1,3.1s-3.2-1.4-3.2-3.1c0-1.7,1.4-3.1,3.1-3.1
				C25.1,22.5,26.6,23.9,26.6,25.6z"/>
			<path fill="#009F84" d="M27.3,4.4c-4,0-7.9,1.5-10.9,4.4c-2.9,2.9-4.6,6.7-4.6,10.7c0,0.3,0.3,0.6,0.6,0.6c0.3,0,0.6-0.3,0.6-0.6
				c0-3.7,1.5-7.2,4.1-9.8c2.7-2.6,6.3-4.1,10-4c7.6,0.1,13.9,6.3,13.9,13.8c0,0.3,0.3,0.6,0.6,0.6c0.3,0,0.6-0.3,0.6-0.6
				C42.5,11.2,35.7,4.4,27.3,4.4z"/>
			<path fill="#009F84" d="M51.9,31.2c-2.1,0-3.8,1.7-3.8,3.8c0,2.1,1.7,3.8,3.8,3.8c2.1,0,3.8-1.7,3.8-3.8
				C55.7,32.9,53.9,31.2,51.9,31.2z M51.9,37.5c-1.4,0-2.5-1.1-2.5-2.5c0-1.4,1.1-2.5,2.5-2.5c1.4,0,2.5,1.1,2.5,2.5
				C54.4,36.4,53.2,37.5,51.9,37.5z"/>
			<path fill="#009F84" d="M4.5,44.4c-2.4,0-4.5,2-4.5,4.4c0,2.4,2,4.4,4.5,4.4c2.4,0,4.5-2,4.5-4.4C8.9,46.4,6.9,44.4,4.5,44.4z
				 M4.5,51.9c-1.7,0-3.1-1.4-3.1-3.1c0-1.7,1.4-3.1,3.1-3.1c1.7,0,3.1,1.4,3.1,3.1C7.6,50.5,6.2,51.9,4.5,51.9z"/>
			<path fill="#009F84" d="M45.8,1.9c0.5,0,0.9,0.4,0.9,0.9c0,0.5-0.4,0.9-0.9,0.9c-0.5,0-0.9-0.4-0.9-0.9
				C44.9,2.3,45.3,1.9,45.8,1.9z"/>
			<path fill="#009F84" d="M52.2,21.9c0.5,0,0.9,0.4,0.9,0.9c0,0.5-0.4,0.9-0.9,0.9c-0.5,0-0.9-0.4-0.9-0.9
				C51.3,22.3,51.7,21.9,52.2,21.9z"/>
			<path fill="#009F84" d="M4.8,6.3c0.5,0,0.9,0.4,0.9,0.9c0,0.5-0.4,0.9-0.9,0.9c-0.5,0-0.9-0.4-0.9-0.9C3.8,6.7,4.3,6.3,4.8,6.3z"
				/>
			<path fill="#009F84" d="M2.2,30.6c0.5,0,0.9,0.4,0.9,0.9c0,0.5-0.4,0.9-0.9,0.9c-0.5,0-0.9-0.4-0.9-0.9C1.3,31,1.7,30.6,2.2,30.6
				z"/>
			<path fill="#009F84" d="M13.6,46.9c0.5,0,0.9,0.4,0.9,0.9c0,0.5-0.4,0.9-0.9,0.9c-0.5,0-0.9-0.4-0.9-0.9
				C12.6,47.3,13.1,46.9,13.6,46.9z"/>
			<path fill="#009F84" d="M44.6,41.3c0.5,0,0.9,0.4,0.9,0.9c0,0.5-0.4,0.9-0.9,0.9s-0.9-0.4-0.9-0.9C43.7,41.7,44.1,41.3,44.6,41.3
				z"/>
			<path fill="#009F84" d="M49,53.8c0.5,0,0.9,0.4,0.9,0.9c0,0.5-0.4,0.9-0.9,0.9c-0.5,0-0.9-0.4-0.9-0.9
				C48.1,54.2,48.5,53.8,49,53.8z"/>
		</g>
	</g>
</g>
<g>
</g>
<g>
</g>
<g>
</g>
<g>
</g>
<g>
</g>
<g>
</g>
</svg>
