<?xml version="1.0" encoding="utf-8"?>
<!-- Generator: Adobe Illustrator 28.1.0, SVG Export Plug-In . SVG Version: 6.00 Build 0)  -->
<svg version="1.0" id="Layer_1" xmlns="http://www.w3.org/2000/svg" xmlns:xlink="http://www.w3.org/1999/xlink" x="0px" y="0px"
	 viewBox="0 0 59.1 58.4" enable-background="new 0 0 59.1 58.4" xml:space="preserve">
<g id="_x39_5_x2C__Award_x2C__Badge_x2C__Quality_x2C__Medal">
	<g>
		<g>
			<path fill="#009F84" d="M50,23.9c0-10.7-8.8-19.4-19.6-19.4c-10.8,0-19.6,8.7-19.6,19.4c0,5.9,2.6,11.2,6.9,14.7l-4.8,8.9
				c-0.1,0.2-0.1,0.5,0,0.7c0.1,0.2,0.4,0.3,0.6,0.2L21,47l3,6.9c0.1,0.2,0.3,0.4,0.6,0.4c0.2,0,0.5-0.1,0.6-0.3l5.2-10l5.2,10
				c0.1,0.2,0.3,0.3,0.6,0.3c0.2,0,0.5-0.1,0.6-0.4l3-6.9l7.5,1.4c0.2,0,0.5,0,0.6-0.2c0.1-0.2,0.2-0.5,0-0.7l-4.8-8.9
				C47.4,35.1,50,29.8,50,23.9z M24.7,52.2L22,46.1c-0.1-0.3-0.4-0.4-0.7-0.4L14.6,47l4-7.6c3,2.2,6.7,3.6,10.7,3.8L24.7,52.2z
				 M46.2,47l-6.7-1.3c-0.3-0.1-0.6,0.1-0.7,0.4l-2.7,6.1l-4.7-9c3.9-0.2,7.7-1.6,10.7-3.8L46.2,47z M30.4,42
				c-10.1,0-18.3-8.1-18.3-18.1S20.3,5.8,30.4,5.8c10.1,0,18.3,8.1,18.3,18.1S40.5,42,30.4,42z"/>
			<path fill="#009F84" d="M30.4,10.8c-7.3,0-13.3,5.9-13.3,13.1S23.1,37,30.4,37s13.3-5.9,13.3-13.1S37.8,10.8,30.4,10.8z
				 M30.4,35.8c-6.6,0-12-5.3-12-11.9c0-6.6,5.4-11.9,12-11.9c6.7,0,12,5.3,12,11.9C42.4,30.5,37.1,35.8,30.4,35.8z"/>
			<path fill="#009F84" d="M38.9,21l-3.1-3.1c-0.1-0.1-0.3-0.2-0.4-0.2c-0.1,0-0.3,0.1-0.4,0.2l-5.9,5.8L26.3,21
				c-0.2-0.2-0.6-0.2-0.9,0l-3.1,3.1c-0.1,0.1-0.2,0.3-0.2,0.4c0,0.1,0.1,0.3,0.2,0.4l6.3,6.2c0.1,0.1,0.3,0.2,0.4,0.2
				c0.1,0,0.3-0.1,0.4-0.2l9.4-9.3C39.2,21.7,39.2,21.3,38.9,21z M29.1,29.9l-5.4-5.3l2.2-2.2l2.7,2.7c0.2,0.2,0.6,0.2,0.9,0
				l5.8-5.7l2.2,2.2L29.1,29.9z"/>
			<path fill="#009F84" d="M53.9,3.3C51.7,3.3,50,5,50,7.1c0,2.1,1.7,3.8,3.8,3.8c2.1,0,3.8-1.7,3.8-3.8C57.7,5,55.9,3.3,53.9,3.3z
				 M53.9,9.5c-1.4,0-2.5-1.1-2.5-2.5c0-1.4,1.1-2.5,2.5-2.5c1.4,0,2.5,1.1,2.5,2.5C56.4,8.4,55.2,9.5,53.9,9.5z"/>
			<path fill="#009F84" d="M5.8,40.1c-2.4,0-4.5,2-4.5,4.4c0,2.4,2,4.4,4.5,4.4c2.4,0,4.5-2,4.5-4.4C10.3,42.1,8.2,40.1,5.8,40.1z
				 M5.8,47.6c-1.7,0-3.1-1.4-3.1-3.1c0-1.7,1.4-3.1,3.1-3.1c1.7,0,3.1,1.4,3.1,3.1C8.9,46.2,7.5,47.6,5.8,47.6z"/>
			<path fill="#009F84" d="M52.8,15.2c0.5,0,0.9,0.4,0.9,0.9c0,0.5-0.4,0.9-0.9,0.9c-0.5,0-0.9-0.4-0.9-0.9
				C51.9,15.6,52.3,15.2,52.8,15.2z"/>
			<path fill="#009F84" d="M52.2,42.1c0.5,0,0.9,0.4,0.9,0.9c0,0.5-0.4,0.9-0.9,0.9c-0.5,0-0.9-0.4-0.9-0.9
				C51.3,42.5,51.7,42.1,52.2,42.1z"/>
			<path fill="#009F84" d="M14.3,3.9c0.5,0,0.9,0.4,0.9,0.9c0,0.5-0.4,0.9-0.9,0.9c-0.5,0-0.9-0.4-0.9-0.9
				C13.4,4.3,13.8,3.9,14.3,3.9z"/>
			<path fill="#009F84" d="M4.2,15.8c0.5,0,0.9,0.4,0.9,0.9c0,0.5-0.4,0.9-0.9,0.9s-0.9-0.4-0.9-0.9C3.3,16.2,3.7,15.8,4.2,15.8z"/>
			<path fill="#009F84" d="M8.6,33.3c0.5,0,0.9,0.4,0.9,0.9c0,0.5-0.4,0.9-0.9,0.9s-0.9-0.4-0.9-0.9C7.7,33.7,8.1,33.3,8.6,33.3z"/>
			<path fill="#009F84" d="M42.1,53.3c0.5,0,0.9,0.4,0.9,0.9c0,0.5-0.4,0.9-0.9,0.9c-0.5,0-0.9-0.4-0.9-0.9
				C41.2,53.7,41.6,53.3,42.1,53.3z"/>
		</g>
	</g>
</g>
<g>
</g>
<g>
</g>
<g>
</g>
<g>
</g>
<g>
</g>
<g>
</g>
</svg>
